<svg width="40" viewBox="0 0 72 41" fill="none" xmlns="http://www.w3.org/2000/svg">
<path d="M32.9071 0L33.0583 9.58481H31.8787C31.7981 7.64971 31.3847 6.09759 30.6387 4.92847C29.8926 3.75934 28.9752 3.0236 27.8863 2.72124C26.8177 2.39872 25.2651 2.23746 23.2285 2.23746H11.7353V33.5317C11.7353 36.2328 12.078 37.9462 12.7636 38.6718C13.4693 39.3975 15.0824 39.8006 17.6029 39.8813V41H0V39.8813C2.54062 39.8006 4.1638 39.3975 4.86952 38.6718C5.57525 37.9462 5.92812 36.2328 5.92812 33.5317V7.46829C5.92812 4.76721 5.57525 3.05383 4.86952 2.32817C4.1638 1.60251 2.54062 1.19936 0 1.11873V0H32.9071Z" fill="currentColor"/>
<path d="M62.6844 20.0767C65.5275 20.6814 67.6547 21.649 69.0662 22.9794C71.0221 24.8338 72 27.1015 72 29.7824C72 31.8183 71.3548 33.7736 70.0643 35.6482C68.7738 37.5027 66.9994 38.8633 64.7411 39.7301C62.5029 40.5767 59.0751 41 54.4576 41H35.1005V39.8813H36.643C38.3569 39.8813 39.5869 39.337 40.333 38.2485C40.7967 37.543 41.0286 36.0413 41.0286 33.7434V7.25664C41.0286 4.71681 40.7362 3.11431 40.1515 2.44912C39.3651 1.56219 38.1956 1.11873 36.643 1.11873H35.1005V0H52.8244C56.1312 0 58.7827 0.241888 60.7789 0.725664C63.8035 1.45133 66.1122 2.7414 67.7051 4.59587C69.2981 6.43019 70.0945 8.54671 70.0945 10.9454C70.0945 13.0015 69.4695 14.8459 68.2193 16.4786C66.9692 18.0912 65.1242 19.2906 62.6844 20.0767ZM46.8358 18.444C47.5818 18.5851 48.4287 18.6959 49.3764 18.7765C50.3442 18.837 51.4028 18.8673 52.5521 18.8673C55.496 18.8673 57.704 18.5548 59.1759 17.9299C60.668 17.2849 61.8073 16.3073 62.5937 14.9971C63.38 13.6868 63.7732 12.2557 63.7732 10.7035C63.7732 8.30482 62.7953 6.25885 60.8394 4.56563C58.8835 2.87242 56.0304 2.02581 52.2799 2.02581C50.2636 2.02581 48.4488 2.24754 46.8358 2.691V18.444ZM46.8358 38.0369C49.1747 38.5811 51.4835 38.8532 53.762 38.8532C57.4116 38.8532 60.1942 38.0369 62.1097 36.4041C64.0253 34.7512 64.983 32.7153 64.983 30.2965C64.983 28.704 64.5495 27.1721 63.6825 25.7006C62.8155 24.2291 61.404 23.0701 59.4481 22.2235C57.4922 21.3768 55.0726 20.9535 52.1892 20.9535C50.9391 20.9535 49.8704 20.9737 48.9832 21.014C48.096 21.0543 47.3802 21.1249 46.8358 21.2257V38.0369Z" fill="currentColor"/>
</svg>  